<mxfile host="app.diagrams.net" modified="2023-05-26T12:32:29.015Z" agent="Mozilla/5.0 (Windows NT 10.0; Win64; x64) AppleWebKit/537.36 (KHTML, like Gecko) Chrome/113.0.0.0 Safari/537.36" etag="VeTZjd11N53dG4Y1BS7H" version="21.3.2" type="github">
  <diagram name="Page-1" id="c37626ed-c26b-45fb-9056-f9ebc6bb27b6">
    <mxGraphModel dx="1195" dy="637" grid="1" gridSize="10" guides="1" tooltips="1" connect="1" arrows="1" fold="1" page="1" pageScale="1" pageWidth="1169" pageHeight="827" background="none" math="0" shadow="0">
      <root>
        <mxCell id="0" />
        <mxCell id="1" parent="0" />
        <mxCell id="V7yZK2pKeIdHbW1tO0_u-55" value="" style="rounded=1;whiteSpace=wrap;html=1;hachureGap=4;fontFamily=Architects Daughter;fontSource=https%3A%2F%2Ffonts.googleapis.com%2Fcss%3Ffamily%3DArchitects%2BDaughter;fontSize=20;strokeColor=#36393d;fillColor=#eeeeee;" vertex="1" parent="1">
          <mxGeometry x="170" y="40" width="820" height="590" as="geometry" />
        </mxCell>
        <mxCell id="8NDlUTmJP2dTjy302EjL-72" value="Leaf-2&lt;br&gt;L0:&amp;nbsp;10.1.1.2/32&amp;nbsp;" style="text;html=1;strokeColor=none;fillColor=none;align=center;verticalAlign=middle;whiteSpace=wrap;rounded=0;fontSize=20;fontFamily=Helvetica;horizontal=1;" parent="1" vertex="1">
          <mxGeometry x="516" y="559" width="150" height="50" as="geometry" />
        </mxCell>
        <mxCell id="8NDlUTmJP2dTjy302EjL-38" style="edgeStyle=none;rounded=0;hachureGap=4;orthogonalLoop=1;jettySize=auto;html=1;exitX=0.5;exitY=0;exitDx=0;exitDy=0;exitPerimeter=0;entryX=0.5;entryY=1;entryDx=0;entryDy=0;entryPerimeter=0;fontFamily=Architects Daughter;fontSource=https%3A%2F%2Ffonts.googleapis.com%2Fcss%3Ffamily%3DArchitects%2BDaughter;fontSize=16;strokeColor=#EA6B66;endArrow=none;endFill=0;strokeWidth=3;" parent="1" source="8NDlUTmJP2dTjy302EjL-2" target="8NDlUTmJP2dTjy302EjL-5" edge="1">
          <mxGeometry relative="1" as="geometry">
            <mxPoint x="355" y="260" as="sourcePoint" />
          </mxGeometry>
        </mxCell>
        <mxCell id="8NDlUTmJP2dTjy302EjL-45" style="edgeStyle=none;rounded=0;hachureGap=4;orthogonalLoop=1;jettySize=auto;html=1;exitX=0.5;exitY=0;exitDx=0;exitDy=0;exitPerimeter=0;entryX=0.5;entryY=1;entryDx=0;entryDy=0;entryPerimeter=0;fontFamily=Architects Daughter;fontSource=https%3A%2F%2Ffonts.googleapis.com%2Fcss%3Ffamily%3DArchitects%2BDaughter;fontSize=16;strokeWidth=3;strokeColor=#EA6B66;endArrow=none;endFill=0;" parent="1" source="8NDlUTmJP2dTjy302EjL-11" target="8NDlUTmJP2dTjy302EjL-5" edge="1">
          <mxGeometry relative="1" as="geometry">
            <mxPoint x="515" y="260" as="sourcePoint" />
          </mxGeometry>
        </mxCell>
        <mxCell id="8NDlUTmJP2dTjy302EjL-5" value="" style="shape=mxgraph.cisco.misc.route_switch_processor;html=1;dashed=0;fillColor=#036897;strokeColor=#ffffff;strokeWidth=2;verticalLabelPosition=bottom;verticalAlign=top;rounded=0;shadow=0;comic=0;fontFamily=Verdana;fontSize=12;" parent="1" vertex="1">
          <mxGeometry x="380" y="127" width="91" height="116" as="geometry" />
        </mxCell>
        <mxCell id="8NDlUTmJP2dTjy302EjL-7" value="" style="shape=mxgraph.cisco.misc.route_switch_processor;html=1;dashed=0;fillColor=#036897;strokeColor=#ffffff;strokeWidth=2;verticalLabelPosition=bottom;verticalAlign=top;rounded=0;shadow=0;comic=0;fontFamily=Verdana;fontSize=12;" parent="1" vertex="1">
          <mxGeometry x="720" y="127" width="91" height="116" as="geometry" />
        </mxCell>
        <mxCell id="8NDlUTmJP2dTjy302EjL-2" value="" style="shape=mxgraph.cisco.switches.layer_3_switch;sketch=0;html=1;pointerEvents=1;dashed=0;fillColor=#036897;strokeColor=#ffffff;strokeWidth=2;verticalLabelPosition=bottom;verticalAlign=top;align=center;outlineConnect=0;hachureGap=4;jiggle=2;curveFitting=1;fontFamily=Architects Daughter;fontSource=https%3A%2F%2Ffonts.googleapis.com%2Fcss%3Ffamily%3DArchitects%2BDaughter;fontSize=20;" parent="1" vertex="1">
          <mxGeometry x="230" y="470" width="90" height="90" as="geometry" />
        </mxCell>
        <mxCell id="8NDlUTmJP2dTjy302EjL-10" value="" style="shape=mxgraph.cisco.switches.layer_3_switch;sketch=0;html=1;pointerEvents=1;dashed=0;fillColor=#036897;strokeColor=#ffffff;strokeWidth=2;verticalLabelPosition=bottom;verticalAlign=top;align=center;outlineConnect=0;hachureGap=4;jiggle=2;curveFitting=1;fontFamily=Architects Daughter;fontSource=https%3A%2F%2Ffonts.googleapis.com%2Fcss%3Ffamily%3DArchitects%2BDaughter;fontSize=20;" parent="1" vertex="1">
          <mxGeometry x="545" y="470" width="90" height="90" as="geometry" />
        </mxCell>
        <mxCell id="8NDlUTmJP2dTjy302EjL-67" value="Spine-1&lt;br&gt;L0:&amp;nbsp;10.1.0.1/32" style="text;html=1;strokeColor=none;fillColor=none;align=center;verticalAlign=middle;whiteSpace=wrap;rounded=0;fontSize=20;fontFamily=Helvetica;horizontal=1;" parent="1" vertex="1">
          <mxGeometry x="354.63" y="77" width="141.75" height="40" as="geometry" />
        </mxCell>
        <mxCell id="8NDlUTmJP2dTjy302EjL-68" value="Leaf-1&lt;br&gt;L0:&amp;nbsp;10.1.1.1/32" style="text;html=1;strokeColor=none;fillColor=none;align=center;verticalAlign=middle;whiteSpace=wrap;rounded=0;fontSize=20;fontFamily=Helvetica;horizontal=1;" parent="1" vertex="1">
          <mxGeometry x="192.5" y="559" width="155" height="50" as="geometry" />
        </mxCell>
        <mxCell id="8NDlUTmJP2dTjy302EjL-69" value="Spine-2&lt;br&gt;L0:&amp;nbsp;10.1.0.2/32" style="text;html=1;strokeColor=none;fillColor=none;align=center;verticalAlign=middle;whiteSpace=wrap;rounded=0;fontSize=20;fontFamily=Helvetica;horizontal=1;" parent="1" vertex="1">
          <mxGeometry x="695" y="77" width="141" height="40" as="geometry" />
        </mxCell>
        <mxCell id="8NDlUTmJP2dTjy302EjL-74" value="Leaf-3&lt;br&gt;L0:&amp;nbsp;10.1.1.3/32" style="text;html=1;strokeColor=none;fillColor=none;align=center;verticalAlign=middle;whiteSpace=wrap;rounded=0;fontSize=20;fontFamily=Helvetica;horizontal=1;" parent="1" vertex="1">
          <mxGeometry x="813" y="564" width="156" height="40" as="geometry" />
        </mxCell>
        <mxCell id="V7yZK2pKeIdHbW1tO0_u-18" value="" style="edgeStyle=none;rounded=0;hachureGap=4;orthogonalLoop=1;jettySize=auto;html=1;exitX=0.5;exitY=0;exitDx=0;exitDy=0;exitPerimeter=0;entryX=0.5;entryY=1;entryDx=0;entryDy=0;entryPerimeter=0;fontFamily=Architects Daughter;fontSource=https%3A%2F%2Ffonts.googleapis.com%2Fcss%3Ffamily%3DArchitects%2BDaughter;fontSize=16;endArrow=none;endFill=0;strokeWidth=3;strokeColor=#EA6B66;" edge="1" parent="1" source="8NDlUTmJP2dTjy302EjL-2" target="8NDlUTmJP2dTjy302EjL-7">
          <mxGeometry relative="1" as="geometry">
            <mxPoint x="670" y="260" as="sourcePoint" />
            <mxPoint x="665" y="266" as="targetPoint" />
          </mxGeometry>
        </mxCell>
        <mxCell id="V7yZK2pKeIdHbW1tO0_u-21" value="" style="edgeStyle=none;rounded=0;hachureGap=4;orthogonalLoop=1;jettySize=auto;html=1;exitX=0.5;exitY=0;exitDx=0;exitDy=0;exitPerimeter=0;entryX=0.5;entryY=1;entryDx=0;entryDy=0;entryPerimeter=0;fontFamily=Architects Daughter;fontSource=https%3A%2F%2Ffonts.googleapis.com%2Fcss%3Ffamily%3DArchitects%2BDaughter;fontSize=16;endArrow=none;endFill=0;strokeWidth=3;strokeColor=#EA6B66;" edge="1" parent="1" source="8NDlUTmJP2dTjy302EjL-11" target="8NDlUTmJP2dTjy302EjL-7">
          <mxGeometry relative="1" as="geometry">
            <mxPoint x="810" y="260" as="sourcePoint" />
            <mxPoint x="805" y="276" as="targetPoint" />
          </mxGeometry>
        </mxCell>
        <mxCell id="V7yZK2pKeIdHbW1tO0_u-28" value="" style="edgeStyle=none;rounded=0;hachureGap=4;orthogonalLoop=1;jettySize=auto;html=1;exitX=0.5;exitY=0;exitDx=0;exitDy=0;exitPerimeter=0;entryX=0.5;entryY=1;entryDx=0;entryDy=0;entryPerimeter=0;fontFamily=Architects Daughter;fontSource=https%3A%2F%2Ffonts.googleapis.com%2Fcss%3Ffamily%3DArchitects%2BDaughter;fontSize=16;endArrow=none;endFill=0;strokeColor=#EA6B66;strokeWidth=3;" edge="1" parent="1" source="8NDlUTmJP2dTjy302EjL-10" target="8NDlUTmJP2dTjy302EjL-7">
          <mxGeometry relative="1" as="geometry">
            <mxPoint x="590" y="470" as="sourcePoint" />
            <mxPoint x="620" y="440.0000000000001" as="targetPoint" />
          </mxGeometry>
        </mxCell>
        <mxCell id="V7yZK2pKeIdHbW1tO0_u-30" value="" style="edgeStyle=none;rounded=0;hachureGap=4;orthogonalLoop=1;jettySize=auto;html=1;exitX=0.5;exitY=0;exitDx=0;exitDy=0;exitPerimeter=0;entryX=0.5;entryY=1;entryDx=0;entryDy=0;entryPerimeter=0;fontFamily=Architects Daughter;fontSource=https%3A%2F%2Ffonts.googleapis.com%2Fcss%3Ffamily%3DArchitects%2BDaughter;fontSize=16;endArrow=none;endFill=0;strokeWidth=3;strokeColor=#EA6B66;" edge="1" parent="1" source="8NDlUTmJP2dTjy302EjL-10" target="8NDlUTmJP2dTjy302EjL-5">
          <mxGeometry relative="1" as="geometry">
            <mxPoint x="590" y="470" as="sourcePoint" />
            <mxPoint x="545" y="440" as="targetPoint" />
          </mxGeometry>
        </mxCell>
        <mxCell id="V7yZK2pKeIdHbW1tO0_u-50" value="Eth1:1" style="text;html=1;strokeColor=#d6b656;fillColor=#fff2cc;align=center;verticalAlign=middle;whiteSpace=wrap;rounded=1;fontSize=14;fontFamily=Helvetica;horizontal=1;" vertex="1" parent="1">
          <mxGeometry x="241" y="430" width="50" height="20" as="geometry" />
        </mxCell>
        <mxCell id="V7yZK2pKeIdHbW1tO0_u-56" value="OSPF&amp;nbsp;&lt;br style=&quot;font-size: 24px;&quot;&gt;area 0.0.0.0" style="text;html=1;strokeColor=none;fillColor=none;align=center;verticalAlign=middle;whiteSpace=wrap;rounded=0;fontSize=24;fontFamily=Helvetica;horizontal=1;fontStyle=1;fontColor=#000000;" vertex="1" parent="1">
          <mxGeometry x="520.12" y="60" width="141.75" height="40" as="geometry" />
        </mxCell>
        <mxCell id="V7yZK2pKeIdHbW1tO0_u-60" value="10.1.5.X/31" style="text;html=1;strokeColor=#d79b00;fillColor=#ffe6cc;align=center;verticalAlign=middle;whiteSpace=wrap;rounded=1;fontSize=23;fontFamily=Helvetica;labelBackgroundColor=none;fontStyle=1;" vertex="1" parent="1">
          <mxGeometry x="330" y="340" width="530" height="30" as="geometry" />
        </mxCell>
        <mxCell id="V7yZK2pKeIdHbW1tO0_u-65" value="Eth2:7" style="text;html=1;strokeColor=#d6b656;fillColor=#fff2cc;align=center;verticalAlign=middle;whiteSpace=wrap;rounded=1;fontSize=14;fontFamily=Helvetica;horizontal=1;" vertex="1" parent="1">
          <mxGeometry x="318" y="448" width="50" height="20" as="geometry" />
        </mxCell>
        <mxCell id="V7yZK2pKeIdHbW1tO0_u-66" value="Eth1:0" style="text;html=1;strokeColor=#d6b656;fillColor=#fff2cc;align=center;verticalAlign=middle;whiteSpace=wrap;rounded=1;fontSize=14;fontFamily=Helvetica;horizontal=1;" vertex="1" parent="1">
          <mxGeometry x="360" y="250" width="50" height="20" as="geometry" />
        </mxCell>
        <mxCell id="V7yZK2pKeIdHbW1tO0_u-67" value="Eth2:2" style="text;html=1;strokeColor=#d6b656;fillColor=#fff2cc;align=center;verticalAlign=middle;whiteSpace=wrap;rounded=1;fontSize=14;fontFamily=Helvetica;horizontal=1;" vertex="1" parent="1">
          <mxGeometry x="405" y="280" width="50" height="20" as="geometry" />
        </mxCell>
        <mxCell id="V7yZK2pKeIdHbW1tO0_u-68" value="Eth1:3" style="text;html=1;strokeColor=#d6b656;fillColor=#fff2cc;align=center;verticalAlign=middle;whiteSpace=wrap;rounded=1;fontSize=14;fontFamily=Helvetica;horizontal=1;" vertex="1" parent="1">
          <mxGeometry x="520.12" y="440" width="50" height="20" as="geometry" />
        </mxCell>
        <mxCell id="V7yZK2pKeIdHbW1tO0_u-69" value="Eth1:6" style="text;html=1;strokeColor=#d6b656;fillColor=#fff2cc;align=center;verticalAlign=middle;whiteSpace=wrap;rounded=1;fontSize=14;fontFamily=Helvetica;horizontal=1;" vertex="1" parent="1">
          <mxGeometry x="666" y="247" width="50" height="20" as="geometry" />
        </mxCell>
        <mxCell id="V7yZK2pKeIdHbW1tO0_u-70" value="Eth3:4" style="text;html=1;strokeColor=#d6b656;fillColor=#fff2cc;align=center;verticalAlign=middle;whiteSpace=wrap;rounded=1;fontSize=14;fontFamily=Helvetica;horizontal=1;" vertex="1" parent="1">
          <mxGeometry x="477.5" y="250" width="50" height="20" as="geometry" />
        </mxCell>
        <mxCell id="V7yZK2pKeIdHbW1tO0_u-71" value="Eth1:5" style="text;html=1;strokeColor=#d6b656;fillColor=#fff2cc;align=center;verticalAlign=middle;whiteSpace=wrap;rounded=1;fontSize=14;fontFamily=Helvetica;horizontal=1;" vertex="1" parent="1">
          <mxGeometry x="785" y="440" width="50" height="20" as="geometry" />
        </mxCell>
        <mxCell id="V7yZK2pKeIdHbW1tO0_u-72" value="Eth2:9" style="text;html=1;strokeColor=#d6b656;fillColor=#fff2cc;align=center;verticalAlign=middle;whiteSpace=wrap;rounded=1;fontSize=14;fontFamily=Helvetica;horizontal=1;" vertex="1" parent="1">
          <mxGeometry x="612" y="440" width="50" height="20" as="geometry" />
        </mxCell>
        <mxCell id="V7yZK2pKeIdHbW1tO0_u-73" value="Eth2:8" style="text;html=1;strokeColor=#d6b656;fillColor=#fff2cc;align=center;verticalAlign=middle;whiteSpace=wrap;rounded=1;fontSize=14;fontFamily=Helvetica;horizontal=1;" vertex="1" parent="1">
          <mxGeometry x="720" y="270" width="50" height="20" as="geometry" />
        </mxCell>
        <mxCell id="V7yZK2pKeIdHbW1tO0_u-74" value="Eth3:10" style="text;html=1;strokeColor=#d6b656;fillColor=#fff2cc;align=center;verticalAlign=middle;whiteSpace=wrap;rounded=1;fontSize=14;fontFamily=Helvetica;horizontal=1;" vertex="1" parent="1">
          <mxGeometry x="780" y="250" width="50" height="20" as="geometry" />
        </mxCell>
        <mxCell id="V7yZK2pKeIdHbW1tO0_u-75" value="Eth2:11" style="text;html=1;strokeColor=#d6b656;fillColor=#fff2cc;align=center;verticalAlign=middle;whiteSpace=wrap;rounded=1;fontSize=14;fontFamily=Helvetica;horizontal=1;" vertex="1" parent="1">
          <mxGeometry x="874" y="430" width="50" height="20" as="geometry" />
        </mxCell>
        <mxCell id="8NDlUTmJP2dTjy302EjL-11" value="" style="shape=mxgraph.cisco.switches.layer_3_switch;sketch=0;html=1;pointerEvents=1;dashed=0;fillColor=#036897;strokeColor=#ffffff;strokeWidth=2;verticalLabelPosition=bottom;verticalAlign=top;align=center;outlineConnect=0;hachureGap=4;jiggle=2;curveFitting=1;fontFamily=Architects Daughter;fontSource=https%3A%2F%2Ffonts.googleapis.com%2Fcss%3Ffamily%3DArchitects%2BDaughter;fontSize=20;" parent="1" vertex="1">
          <mxGeometry x="841" y="470" width="90" height="90" as="geometry" />
        </mxCell>
      </root>
    </mxGraphModel>
  </diagram>
</mxfile>
